<svg xmlns="http://www.w3.org/2000/svg" 
	xmlns:xlink="http://www.w3.org/1999/xlink" width="16px" height="14px">
	<path fill-rule="evenodd" fill="rgb(255, 255, 255)" d="M14.772,10.466 L4.629,10.466 L3.768,5.145 L3.142,1.541 L-0.000,1.541 L-0.000,-0.000 L4.434,-0.000 L4.932,2.875 L16.000,2.875 L14.772,10.466 ZM5.905,11.082 C6.708,11.082 7.359,11.735 7.359,12.541 C7.359,13.346 6.708,14.000 5.905,14.000 C5.102,14.000 4.451,13.346 4.451,12.541 C4.451,11.735 5.102,11.082 5.905,11.082 ZM13.430,11.082 C14.233,11.082 14.884,11.735 14.884,12.541 C14.884,13.346 14.233,14.000 13.430,14.000 C12.627,14.000 11.976,13.346 11.976,12.541 C11.976,11.735 12.627,11.082 13.430,11.082 Z"/>
</svg>