<svg xmlns="http://www.w3.org/2000/svg" width="68" height="36" viewBox="0 0 68 36"><path d="M420.381,173.854H407.13v6.9h2.222a5.492,5.492,0,0,1,4.443-2.379,5.257,5.257,0,0,1,4.364,2.379h2.222Zm-53.479-.4a1.348,1.348,0,1,1,0,2.7h-5.316a1.35,1.35,0,0,1,0-2.7Zm0-6.581a1.337,1.337,0,0,1,1.349,1.348,1.322,1.322,0,0,1-1.349,1.269h-7.935a1.322,1.322,0,0,1-1.349-1.269,1.337,1.337,0,0,1,1.349-1.348Zm0-6.582a1.322,1.322,0,0,1,1.349,1.269,1.39,1.39,0,0,1-1.349,1.348H356.349A1.337,1.337,0,0,1,355,161.563a1.273,1.273,0,0,1,1.349-1.269Zm41.578,23.075H391.261a5.288,5.288,0,1,1-10.553,0h-6.586a1.337,1.337,0,0,1-1.349-1.348V154.347A1.337,1.337,0,0,1,374.122,153h31.738a1.273,1.273,0,0,1,1.27,1.348v6.582l6.506-.079a1.427,1.427,0,0,1,1.19.555l7.855,10.308a.988.988,0,0,1,.317.872v9.436a1.291,1.291,0,0,1-1.349,1.348h-2.618a5.288,5.288,0,1,1-10.553,0Zm5.316-2.3a2.618,2.618,0,1,0,0,5.233,2.59,2.59,0,0,0,2.618-2.617A2.641,2.641,0,0,0,413.8,181.07Zm-23.407-.317h14.124V155.616h-29.12v25.137h6.268a5.241,5.241,0,0,1,4.364-2.379A5.349,5.349,0,0,1,390.388,180.753Zm-4.364.317a2.658,2.658,0,0,0-2.7,2.617,2.658,2.658,0,0,0,5.316,0A2.641,2.641,0,0,0,386.024,181.07Zm21.106-17.524v7.691h11.9l-5.951-7.771Z" transform="translate(-355 -152.999)"/></svg>