<svg xmlns="http://www.w3.org/2000/svg" width="81" height="86" viewBox="0 0 81 86">
  <path id="Shape_26" data-name="Shape 26" d="M1068.912,613.2a4.451,4.451,0,0,1-3.755-4.418v-8.834c0-3.666-1.126-5.451-3-8.553-.47-.658-.845-1.41-1.314-2.162-.375-.658-.751-1.222-1.032-1.786a19.93,19.93,0,0,1-3-6.768,18.816,18.816,0,0,1-.657-5.075,21.306,21.306,0,1,1,42.611,0,18.85,18.85,0,0,1-.657,5.075,19.946,19.946,0,0,1-3,6.768c-.282.563-.657,1.128-1.032,1.786-.47.752-.939,1.5-1.314,2.162-1.877,3.007-3,4.887-3,8.553v8.834a4.524,4.524,0,0,1-3.754,4.418c-.845,4.793-3.754,7.8-8.541,7.8S1069.851,617.992,1068.912,613.2Zm8.541,4.135c1.032,0,3.754,0,4.787-3.947h-9.48C1073.793,617.334,1076.421,617.334,1077.453,617.334Zm-8.541-8.459a.741.741,0,0,0,.751.752h15.581c.469,0,.844-.376.751-.752v-2.913h-17.082Zm.094-8.835V602.2h16.988V600.04c0-.47.094-.846.094-1.221h-17.176A4.977,4.977,0,0,1,1069.006,600.04Zm-8.916-24.437a16.346,16.346,0,0,0,.563,4.23,17.911,17.911,0,0,0,2.534,5.733c.282.47.657,1.128,1.032,1.786.376.752.845,1.409,1.22,2.068a23.743,23.743,0,0,1,2.816,5.545h18.584a28.049,28.049,0,0,1,2.815-5.545c.375-.564.752-1.317,1.22-2.068.375-.658.657-1.222,1.032-1.786a17.511,17.511,0,0,0,2.534-5.639,37.9,37.9,0,0,0,.751-4.324,17.551,17.551,0,1,0-35.1,0Zm43.363,28.667-5.539-5.546a1.86,1.86,0,0,1,2.628-2.632l5.539,5.545a1.82,1.82,0,0,1,0,2.633,1.814,1.814,0,0,1-2.628,0Zm-54.626,0a1.82,1.82,0,0,1,0-2.633l5.538-5.545a1.86,1.86,0,0,1,2.628,2.632l-5.538,5.546a1.814,1.814,0,0,1-2.628,0Zm59.507-26.787a1.88,1.88,0,0,1,0-3.76h7.79a1.88,1.88,0,0,1,0,3.76Zm-69.456,0a1.88,1.88,0,0,1,0-3.76h7.79a1.88,1.88,0,0,1,0,3.76Zm59.037-22.37a1.818,1.818,0,0,1,0-2.632l5.538-5.546a1.86,1.86,0,0,1,2.628,2.632l-5.538,5.546a1.814,1.814,0,0,1-2.628,0Zm-43.551,0-5.538-5.546a1.86,1.86,0,0,1,2.628-2.632l5.538,5.546a1.818,1.818,0,0,1,0,2.632,1.814,1.814,0,0,1-2.628,0Zm21.212-10.433v-7.8a1.877,1.877,0,1,1,3.755,0v7.8a1.877,1.877,0,1,1-3.755,0Z" transform="translate(-1037 -535)" fill="#fff"/>
</svg>
