<svg id="Layer_1" enable-background="new 0 0 512.003 512.003" height="512" viewBox="0 0 512.003 512.003" width="512" xmlns="http://www.w3.org/2000/svg"><g><g><path d="m505.322 194.253-241-160.667c-.547-.365-1.115-.682-1.694-.967-3.088-1.522-6.574-1.927-9.87-1.197-1.779.394-3.503 1.115-5.077 2.165l-241 160.667c-6.893 4.595-8.756 13.909-4.161 20.801 4.595 6.894 13.909 8.754 20.801 4.161l54.881-36.587-.001 283.306c0 8.284 6.716 15 15 15h33.533v-247.8c0-8.284 6.716-15 15-15h228.533c8.284 0 15 6.716 15 15v247.8h33.533c8.284 0 15-6.716 15-15v-283.307l54.881 36.587c2.558 1.705 5.447 2.521 8.307 2.521 4.847 0 9.604-2.346 12.494-6.681 4.596-6.893 2.734-16.207-4.16-20.802zm-249.32 7.248c-25.916 0-47-21.084-47-47s21.084-47 47-47 47 21.084 47 47-21.084 47-47 47z"/><circle cx="256.002" cy="154.501" r="17"/><path d="m156.735 425.601h84.267v55.333h-84.267z"/><path d="m271.002 425.601h84.267v55.333h-84.267z"/><path d="m213.868 340.267h84.267v55.333h-84.267z"/></g></g></svg>