<svg xmlns="http://www.w3.org/2000/svg" width="49" height="72.997" viewBox="0 0 49 72.997">
  <path id="Shape_24" data-name="Shape 24" d="M380.119,806.207h-5.654a11.688,11.688,0,0,0,2.968-7.746V773.607a11.537,11.537,0,0,0-9.025-11.276v-2.866a6.445,6.445,0,0,0-3.878-5.888v-6.995h8.048a1.89,1.89,0,0,0,1.881-1.9v-2.894a1.89,1.89,0,0,0-1.662-1.883l-24.425-2.9a1.877,1.877,0,0,0-1.47.467,1.9,1.9,0,0,0-.631,1.416v5.79a1.89,1.89,0,0,0,1.881,1.9h2.315v6.995a6.445,6.445,0,0,0-3.875,5.888v2.865a11.536,11.536,0,0,0-9.027,11.277v24.854a11.687,11.687,0,0,0,2.968,7.746h-5.654a1.9,1.9,0,0,0,0,3.792h45.238a1.9,1.9,0,0,0,0-3.792Zm-25.888-53.132v-6.493h6.538v6.493Zm-3.875,8.994v-2.6a2.591,2.591,0,0,1,2.577-2.6h9.134a2.592,2.592,0,0,1,2.58,2.6v2.6Zm14.365,39.346a1.891,1.891,0,0,0,1.881-1.9V772.554a1.89,1.89,0,0,0-1.881-1.9H341.908a7.7,7.7,0,0,1,7.1-4.8H366a7.719,7.719,0,0,1,7.674,7.746v24.854A7.719,7.719,0,0,1,366,806.207H349a7.7,7.7,0,0,1-7.093-4.791Zm-14.686-58.625v-1.762l14.864,1.762Zm-8.787,48.617h.225V780.666h-.225v-3.337h.225V774.45H362.84v23.174H341.474v-2.878h-.225Z" transform="translate(-333 -737.002)" fill="#fff"/>
</svg>
