<svg xmlns="http://www.w3.org/2000/svg" width="49" height="49" viewBox="0 0 49 49">
  <path id="Shape_25" data-name="Shape 25" d="M1058,776.5a24.5,24.5,0,0,1,24.5-24.5,8.135,8.135,0,0,0,4.01,6.992,14.815,14.815,0,0,0,20.435,16.4c.016.368.057.732.057,1.1a24.5,24.5,0,1,1-49,0Zm4.083,0a20.418,20.418,0,0,0,40.424,4.077,12.1,12.1,0,0,1-8.743-4.126q-.531.049-1.057.049a12.264,12.264,0,0,1-12.25-12.25,12.017,12.017,0,0,1,.833-4.386,12.017,12.017,0,0,1-2.082-3.515A20.449,20.449,0,0,0,1062.083,776.5Zm14.3,13.271a3.06,3.06,0,1,1,3.06,3.06A3.06,3.06,0,0,1,1076.38,789.77Zm12.25-4.08a3.06,3.06,0,1,1,3.06,3.06A3.06,3.06,0,0,1,1088.63,785.69Zm-10.21-6.13a3.06,3.06,0,1,1,3.061,3.06A3.06,3.06,0,0,1,1078.42,779.56Zm-12.25-2.04a3.06,3.06,0,1,1,3.06,3.06A3.06,3.06,0,0,1,1066.17,777.52Zm4.081-10.21a3.06,3.06,0,1,1,3.06,3.06A3.06,3.06,0,0,1,1070.25,767.31Z" transform="translate(-1058 -752)" fill="#fff"/>
</svg>
