<svg xmlns="http://www.w3.org/2000/svg" viewBox="0 0 40.001 68">
  <path id="Shape_12" data-name="Shape 12" d="M357.777,607v-8.9A19.862,19.862,0,0,1,340,578.483V554.354a2.209,2.209,0,0,1,2.222-2.194h4.444V539h4.445V552.16h17.778V539h4.445V552.16h4.444A2.209,2.209,0,0,1,380,554.354v24.129A19.862,19.862,0,0,1,362.222,598.1V607Zm-13.333-28.517a15.557,15.557,0,0,0,31.111,0V556.547H344.444Zm11.761,5.03,7.331-7.236-11.925-3.362a2.213,2.213,0,0,1-1.541-1.559,2.172,2.172,0,0,1,.581-2.1l10-9.87,3.142,3.1-7.33,7.235,11.924,3.362a2.209,2.209,0,0,1,1.541,1.559,2.176,2.176,0,0,1-.58,2.1l-10,9.87Z" transform="translate(-339.999 -538.999)" fill="#fff"/>
</svg>
