<?xml version="1.0" encoding="utf-8"?>
<!-- Generator: Adobe Illustrator 16.0.3, SVG Export Plug-In . SVG Version: 6.00 Build 0)  -->
<!DOCTYPE svg PUBLIC "-//W3C//DTD SVG 1.1//EN" "http://www.w3.org/Graphics/SVG/1.1/DTD/svg11.dtd">
<svg version="1.1" id="Warstwa_1" xmlns="http://www.w3.org/2000/svg" xmlns:xlink="http://www.w3.org/1999/xlink" x="0px" y="0px"
	 viewBox="202.5 70.5 570 434" enable-background="new 202.5 70.5 570 434" xml:space="preserve">
<path fill="#00589C" d="M547.095,472.09L547.095,472.09c7.882,0,16.976-5.255,16.976-16.774v-99.632
	c0-7.881,4.851-12.125,12.732-12.125h44.864c10.104,0,17.38-8.488,17.38-17.38v-28.495c0-12.126-7.478-17.38-17.38-17.38H479.596
	V146.315c0-16.37-7.882-24.655-22.23-24.655H384.41c-14.753,0-28.495,5.254-35.367,19.401l-83.464,174.407
	c-2.627,5.254-3.638,10.509-3.638,14.752c0,7.882,4.244,13.137,13.743,13.137h40.621c7.478,0,15.763-3.638,20.613-14.146
	l10.509-23.646c2.627-5.86,7.478-9.498,14.349-9.498h35.973c7.882,0,12.125,4.851,12.125,12.731v17.986
	c0,10.105,7.882,16.774,17.38,16.774H480c8.488,0,12.731,4.244,12.731,12.125v99.632c0,8.893,7.882,16.774,16.977,16.774H547.095
	L547.095,472.09L547.095,472.09z M402.396,253.829h-23.847c-5.254,0-7.478-2.021-7.478-5.254c0-2.627,1.01-5.254,2.627-8.892
	l21.22-47.896c2.021-5.254,3.233-7.477,8.488-7.477s6.265,2.627,6.265,6.871v52.14C409.671,250.394,409.671,254.031,402.396,253.829
	L402.396,253.829L402.396,253.829z"/>
<path fill="#E8572F" d="M583.674,171.577c-6.871,0-11.115-4.244-11.115-11.722v-26.272c0-7.478,4.244-11.721,11.115-11.721h120.447
	c6.265,0,11.115,4.244,11.115,11.721v112.364c0,9.701-4.244,13.944-11.722,13.944H675.02c-7.478,0-11.721-4.85-11.721-11.317
	v-76.795h-79.625V171.577z"/>
</svg>
