<?xml version="1.0" encoding="utf-8"?>
<!-- Generator: Adobe Illustrator 24.0.1, SVG Export Plug-In . SVG Version: 6.00 Build 0)  -->
<svg version="1.1" id="Warstwa_1" xmlns="http://www.w3.org/2000/svg" xmlns:xlink="http://www.w3.org/1999/xlink" x="0px" y="0px"
	 viewBox="0 0 327 277.1" style="enable-background:new 0 0 327 277.1;" xml:space="preserve">
<style type="text/css">
	.st0{fill-rule:evenodd;clip-rule:evenodd;fill:#ECECED;}
	.st1{fill:#00589C;}
	.st2{fill:#E8572F;}
</style>
<g id="Warstwa_x0020_1">
	<g id="_676122576">
		<path class="st0" d="M27,5h272.4c12.5,0,22.7,10.2,22.7,22.7v222c0,12.5-10.2,22.7-22.7,22.7H27c-12.5,0-22.7-10.2-22.7-22.7v-222
			C4.3,15.2,14.5,5,27,5z"/>
		<path class="st1" d="M196.7,233.6L196.7,233.6c3.9,0,8.4-2.6,8.4-8.3V176c0-3.9,2.4-6,6.3-6h22.2c5,0,8.6-4.2,8.6-8.6v-14.1
			c0-6-3.7-8.6-8.6-8.6h-70.3V72.4c0-8.1-3.9-12.2-11-12.2h-36.1c-7.3,0-14.1,2.6-17.5,9.6l-41.3,86.3c-1.3,2.6-1.8,5.2-1.8,7.3
			c0,3.9,2.1,6.5,6.8,6.5h20.1c3.7,0,7.8-1.8,10.2-7l5.2-11.7c1.3-2.9,3.7-4.7,7.1-4.7h17.8c3.9,0,6,2.4,6,6.3v8.9
			c0,5,3.9,8.3,8.6,8.3h26.1c4.2,0,6.3,2.1,6.3,6v49.3c0,4.4,3.9,8.3,8.4,8.3L196.7,233.6L196.7,233.6L196.7,233.6z M125.1,125.6
			h-11.8c-2.6,0-3.7-1-3.7-2.6c0-1.3,0.5-2.6,1.3-4.4l10.5-23.7c1-2.6,1.6-3.7,4.2-3.7c2.6,0,3.1,1.3,3.1,3.4v25.8
			C128.7,123.9,128.7,125.7,125.1,125.6L125.1,125.6L125.1,125.6z"/>
		<path class="st2" d="M214.8,84.9c-3.4,0-5.5-2.1-5.5-5.8v-13c0-3.7,2.1-5.8,5.5-5.8h59.6c3.1,0,5.5,2.1,5.5,5.8v55.6
			c0,4.8-2.1,6.9-5.8,6.9H260c-3.7,0-5.8-2.4-5.8-5.6v-38H214.8L214.8,84.9z"/>
	</g>
</g>
</svg>
