<svg xmlns="http://www.w3.org/2000/svg" width="27.002" height="29.002" viewBox="0 0 27.002 29.002"><path d="M647.1,184H633.557a1.631,1.631,0,0,1-1.1-.447,1.523,1.523,0,0,1,0-2.171,1.637,1.637,0,0,1,1.1-.447h.028c.626-.01,1.249,0,1.876,0H646.94a19.626,19.626,0,0,0,2.066-.06,8.026,8.026,0,0,0,5.235-2.991,9.525,9.525,0,0,0,1.045-1.763,9.3,9.3,0,0,0,.545-1.967,9.408,9.408,0,0,0,0-2.086,9.276,9.276,0,0,0-.541-1.954,9.54,9.54,0,0,0-1.05-1.774A8.015,8.015,0,0,0,649,165.349c-.146-.016-.293-.029-.439-.037-.563-.037-1.134-.022-1.7-.022l-3.038,0q-1.887-.005-3.775-.006h-.815q1.112,1.1,2.226,2.2,1.247,1.242,2.5,2.477a1.594,1.594,0,0,1,.454,1.079,1.531,1.531,0,0,1-.454,1.085,1.584,1.584,0,0,1-2.206,0l-.915-.907q-1.982-1.959-3.96-3.921-1.247-1.242-2.5-2.477a1.538,1.538,0,0,1,0-2.167c.3-.294.607-.592.909-.889q1.976-1.936,3.959-3.872,1.249-1.223,2.5-2.446a1.658,1.658,0,0,1,1.1-.448,1.581,1.581,0,0,1,1.1.448,1.548,1.548,0,0,1,.455,1.085,1.564,1.564,0,0,1-.455,1.085c-.3.294-.608.592-.909.889q-1.9,1.859-3.8,3.718h.805q2.884,0,5.769.006c.595,0,1.193,0,1.788,0a14.1,14.1,0,0,1,2.39.2,9.783,9.783,0,0,1,2.015.582,11.121,11.121,0,0,1,2.109,1.092,11.381,11.381,0,0,1,3.259,3.344,10.737,10.737,0,0,1,1.115,8.939,11.187,11.187,0,0,1-2.4,4.068,11.493,11.493,0,0,1-1.776,1.536,9.709,9.709,0,0,1-1.748,1,11.289,11.289,0,0,1-2.283.763,11.807,11.807,0,0,1-2.345.248Zm3.71-3.581.049-.021Zm5.053-8.136Zm-.495-1.992Zm-.119-.278-.036-.087Zm-.881-1.513Zm-1.424-1.471Zm-1.763-1.069Zm-1.982-.586Z" transform="translate(-631.999 -154.998)"/></svg>