<svg xmlns="http://www.w3.org/2000/svg" xmlns:xlink="http://www.w3.org/1999/xlink" width="32.002" height="35" viewBox="0 0 32.002 35"><defs><clipPath id="a"><rect width="32.002" height="35" fill="none"/></clipPath></defs><g clip-path="url(#a)"><g transform="translate(-1200.999 -155)"><path d="M1202.483,175.084h13.033v9.008a2.968,2.968,0,0,1-5.936,0,1.484,1.484,0,0,0-2.968,0,5.936,5.936,0,0,0,11.872,0v-9.008h13.033a1.481,1.481,0,0,0,1.484-1.477,15.972,15.972,0,0,0-14.517-15.875v-1.255a1.484,1.484,0,0,0-2.968,0v1.255A15.972,15.972,0,0,0,1201,173.607,1.481,1.481,0,0,0,1202.483,175.084ZM1217,160.623a13.029,13.029,0,0,1,12.948,11.508h-25.9A13.029,13.029,0,0,1,1217,160.623Z"/></g></g></svg>