<svg xmlns="http://www.w3.org/2000/svg" width="29.001" height="36" viewBox="0 0 29.001 36"><path d="M875.175,188.926a23.107,23.107,0,0,1-2.218-.948,32.032,32.032,0,0,1-3.76-2.083,23.9,23.9,0,0,1-4.3-3.466,15.2,15.2,0,0,1-3.307-5.027,10.772,10.772,0,0,1-.428-1.357l-.015-.059a3.822,3.822,0,0,1-.147-.868c0-.14,0-.282,0-.423,0-.068,0-.137,0-.2V157.12a1.493,1.493,0,0,1,1.108-1.435l.023,0c.346-.086.7-.151,1.039-.213.187-.034.38-.069.565-.107l3.289-.662,1.9-.382,1.9-.381,1.577-.317,1.578-.316c.437-.091.871-.177,1.306-.265l.057-.01a1.67,1.67,0,0,1,.651.006l.015,0,.011,0,.011,0c.394.074.794.156,1.18.234l.387.078c.806.163,1.615.324,2.422.484l.8.159,1.883.376,1.846.368q.778.157,1.555.311c.5.1,1.009.2,1.513.3l.643.128c.215.042.429.085.643.129A1.493,1.493,0,0,1,890,157.047v17.8a5.976,5.976,0,0,1-.106,1.049,9.381,9.381,0,0,1-.838,2.472,14.545,14.545,0,0,1-2.34,3.408,24.049,24.049,0,0,1-4.629,3.916,36.38,36.38,0,0,1-3.327,1.963c-.625.328-1.286.653-1.965.967l-.146.067a2.427,2.427,0,0,1-1.042.312A1.292,1.292,0,0,1,875.175,188.926Zm-.224-32.8c-.191.036-.383.072-.572.111l-3.288.662q-.963.192-1.922.386c-.626.125-1.252.252-1.878.376l-1.578.317-1.577.316-.191.04q0,.142,0,.283c0,.242-.005.484-.005.727v15.679a10.006,10.006,0,0,0,.482,1.574,11.257,11.257,0,0,0,.849,1.609c.167.262.35.527.541.788.014.021.027.037.04.054l.062.081c.015.02.031.04.041.052.114.144.211.261.306.373a18.89,18.89,0,0,0,2.435,2.363c.088.074.174.142.266.213l.053.043.075.056.073.056c.211.158.43.319.652.474.423.3.868.595,1.324.878a31.048,31.048,0,0,0,4.165,2.177c.1.04.194.08.29.119a39.341,39.341,0,0,0,4.031-2.166c.57-.349,1.115-.71,1.621-1.073.25-.176.472-.338.68-.5l.02-.015.045-.036.086-.066c.026-.02.051-.041.077-.062l.052-.041c.087-.071.173-.14.259-.212a19.341,19.341,0,0,0,2.143-2.046c.163-.184.294-.338.413-.482.029-.038.063-.08.1-.123s.068-.084.1-.127l.016-.019c.015-.018.03-.037.044-.055.209-.277.4-.559.58-.84a11.19,11.19,0,0,0,.776-1.463,6.992,6.992,0,0,0,.416-1.453l0-.014c.019-.217.017-.442.014-.679,0-.082,0-.164,0-.245v-15.95h0c-.158-.033-.317-.067-.475-.1l-1.636-.327q-.792-.159-1.586-.317l-1.849-.37q-.94-.186-1.879-.375l-1.537-.308-1.531-.307-.642-.129-.258-.05C875.427,156.035,875.186,156.081,874.951,156.126ZM872.285,174.8l-4.493-4.527a1.508,1.508,0,0,1-.011-2.083,1.393,1.393,0,0,1,1.033-.439,1.491,1.491,0,0,1,1.057.428l3.453,3.479.051-.052,7.758-7.817a1.423,1.423,0,0,1,1.021-.427,1.542,1.542,0,0,1,1.046.415,1.393,1.393,0,0,1,.437,1.008,1.511,1.511,0,0,1-.424,1.1l-.012.012c-.239.249-.485.494-.723.732q-.18.177-.357.355l-7.757,7.817a1.475,1.475,0,0,1-2.079,0Z" transform="translate(-860.998 -153)"/></svg>